<?xml version="1.0" encoding="UTF-8"?>
<svg xmlns="http://www.w3.org/2000/svg" id="Layer_1" data-name="Layer 1" viewBox="0 0 24 24">
  <path d="m13,20.5c0,.276-.224.5-.5.5H4.5c-2.481,0-4.5-2.019-4.5-4.5V4.5C0,2.019,2.019,0,4.5,0h12c2.481,0,4.5,2.019,4.5,4.5v8c0,.276-.224.5-.5.5s-.5-.224-.5-.5V4.5c0-1.93-1.57-3.5-3.5-3.5H4.5c-1.93,0-3.5,1.57-3.5,3.5v8.336l3.811-3.811c1.322-1.322,3.628-1.322,4.95,0l7.094,7.122c.195.195.194.512,0,.707-.098.097-.226.146-.353.146-.128,0-.256-.049-.354-.147l-7.094-7.121c-.943-.943-2.591-.944-3.535,0L1,14.25v2.25c0,1.93,1.57,3.5,3.5,3.5h8c.276,0,.5.224.5.5Zm4-15c0,1.379-1.122,2.5-2.5,2.5s-2.5-1.121-2.5-2.5,1.122-2.5,2.5-2.5,2.5,1.121,2.5,2.5Zm-1,0c0-.827-.673-1.5-1.5-1.5s-1.5.673-1.5,1.5.673,1.5,1.5,1.5,1.5-.673,1.5-1.5Zm7.5,13.5h-3.5v-3.5c0-.276-.224-.5-.5-.5s-.5.224-.5.5v3.5h-3.5c-.276,0-.5.224-.5.5s.224.5.5.5h3.5v3.5c0,.276.224.5.5.5s.5-.224.5-.5v-3.5h3.5c.276,0,.5-.224.5-.5s-.224-.5-.5-.5Z"/>
</svg>
