<svg xmlns="http://www.w3.org/2000/svg" width="14" height="14" viewBox="0 0 14 14" fill="none" aria-hidden="true" focusable="false"><path fill="#179BD7" d="M11.212 4.049a6.295 6.295 0 0 1-.04.219c-.507 2.525-2.245 3.397-4.464 3.397h-1.13c-.27 0-.5.191-.542.45l-.578 3.554-.164 1.007A.283.283 0 0 0 4.58 13h2.004a.478.478 0 0 0 .476-.394l.02-.098.377-2.32.025-.127a.477.477 0 0 1 .476-.394h.3c1.941 0 3.46-.764 3.905-2.973.185-.923.09-1.694-.402-2.236a1.91 1.91 0 0 0-.548-.41" clip-rule="evenodd"/><path fill="#222D65" d="M10.68 3.844a4.114 4.114 0 0 0-.493-.107 6.474 6.474 0 0 0-.996-.07H6.172a.492.492 0 0 0-.208.046.468.468 0 0 0-.267.348l-.642 3.94-.019.114a.544.544 0 0 1 .542-.45h1.13c2.22 0 3.957-.873 4.464-3.398.016-.074.028-.147.04-.218a2.758 2.758 0 0 0-.531-.205" clip-rule="evenodd"/><path fill="#253B80" d="M5.697 4.061a.467.467 0 0 1 .268-.348.494.494 0 0 1 .208-.046H9.19c.358 0 .691.023.996.07a4.717 4.717 0 0 1 .494.107l.114.034c.15.048.289.105.417.17.152-.933 0-1.568-.522-2.143C10.116 1.27 9.08 1 7.753 1H3.902a.545.545 0 0 0-.544.45l-1.604 9.848a.324.324 0 0 0 .326.37h2.378l.597-3.667z" clip-rule="evenodd"/></svg>
