<svg xmlns="http://www.w3.org/2000/svg" width="16" height="16" viewBox="0 0 16 16" fill="#000"> <path d="M13.0285 13.7178L8.8413 9.53067C8.50796 9.80588 8.12463 10.0213 7.6913 10.1768C7.25796 10.3324 6.80968 10.4101 6.34643 10.4101C5.20699 10.4101 4.24264 10.0156 3.4534 9.22658C2.66415 8.43754 2.26953 7.47344 2.26953 6.3343C2.26953 5.19514 2.66405 4.23069 3.4531 3.44095C4.24214 2.65121 5.20624 2.25635 6.3454 2.25635C7.48454 2.25635 8.44899 2.65097 9.23873 3.44022C10.0285 4.22946 10.4233 5.1938 10.4233 6.33325C10.4233 6.80932 10.3434 7.26402 10.1836 7.69735C10.0238 8.13068 9.81051 8.5076 9.54385 8.82811L13.731 13.0153L13.0285 13.7178ZM6.34643 9.41018C7.20541 9.41018 7.93297 9.1121 8.52913 8.51595C9.12529 7.91979 9.42336 7.19223 9.42336 6.33325C9.42336 5.47427 9.12529 4.7467 8.52913 4.15055C7.93297 3.55439 7.20541 3.25631 6.34643 3.25631C5.48745 3.25631 4.75989 3.55439 4.16373 4.15055C3.56759 4.7467 3.26951 5.47427 3.26951 6.33325C3.26951 7.19223 3.56759 7.91979 4.16373 8.51595C4.75989 9.1121 5.48745 9.41018 6.34643 9.41018Z" /></svg>
