<svg xmlns="http://www.w3.org/2000/svg" width="17" height="16" viewBox="0 0 17 16" fill="none" aria-hidden="true" focusable="false"><path fill-rule="evenodd" fill="#000" d="M.41 1.151C.41.516.962 0 1.614 0H15.25c.653 0 1.16.516 1.16 1.151v13.697c0 .636-.697 1.152-1.35 1.152H1.425c-.652 0-1.016-.516-1.016-1.152zm8.248 4.944H6.504v7.62H8.79v-3.66C8.79 8.778 9.338 8 10.487 8c.946 0 1.35.89 1.35 1.902v3.812h2.287V9.486C14.124 7.222 13.48 6 11.18 6c-1.2 0-2.17.601-2.498 1.193h-.024zm-3.677 0v7.62H2.695v-7.62zm.177-2.12a1.428 1.428 0 1 0-2.64-1.092 1.428 1.428 0 0 0 2.64 1.092"/></svg>