<svg xmlns="http://www.w3.org/2000/svg" width="24" height="24" viewBox="0 0 24 24" fill="#000" aria-hidden="true" focusable="false"><path d="M12 21.5a9.197 9.197 0 0 1-3.688-.75 9.633 9.633 0 0 1-3.024-2.038 9.636 9.636 0 0 1-2.039-3.024A9.198 9.198 0 0 1 2.5 12c0-1.313.25-2.545.749-3.695a9.66 9.66 0 0 1 2.04-3.017A9.635 9.635 0 0 1 8.312 3.25 9.197 9.197 0 0 1 12 2.5a9.18 9.18 0 0 1 3.695.749 9.66 9.66 0 0 1 3.017 2.04c.86.86 1.54 1.865 2.039 3.016.5 1.15.749 2.382.749 3.695 0 1.303-.25 2.532-.75 3.688a9.634 9.634 0 0 1-2.038 3.024 9.658 9.658 0 0 1-3.017 2.039A9.18 9.18 0 0 1 12 21.5Zm0-1.521c.51-.677.94-1.36 1.289-2.048.348-.689.632-1.441.851-2.258H9.86c.232.842.519 1.608.861 2.296.342.689.769 1.358 1.279 2.01Zm-1.937-.275a10.843 10.843 0 0 1-1.032-1.876 12.28 12.28 0 0 1-.712-2.155H4.927a7.84 7.84 0 0 0 2.125 2.617 7.139 7.139 0 0 0 3.011 1.414Zm3.873 0a7.14 7.14 0 0 0 3.012-1.414 7.84 7.84 0 0 0 2.125-2.617h-3.392a15.721 15.721 0 0 1-.76 2.164 13.034 13.034 0 0 1-.984 1.867Zm-9.638-5.53h3.717a12.443 12.443 0 0 1-.136-1.094 13.71 13.71 0 0 1 0-2.16c.028-.357.074-.721.136-1.093H4.298a8.03 8.03 0 0 0-.221 3.287c.051.366.125.72.221 1.06Zm5.217 0h4.97A12.591 12.591 0 0 0 14.664 12a12.592 12.592 0 0 0-.179-2.173h-4.97A12.552 12.552 0 0 0 9.336 12a12.551 12.551 0 0 0 .179 2.173Zm6.47 0h3.717A7.91 7.91 0 0 0 20 12a8.042 8.042 0 0 0-.298-2.173h-3.717c.062.372.108.736.136 1.093a13.709 13.709 0 0 1 0 2.16 12.45 12.45 0 0 1-.136 1.093Zm-.304-5.847h3.392a7.821 7.821 0 0 0-2.11-2.617 7.365 7.365 0 0 0-3.027-1.423 12.44 12.44 0 0 1 1.024 1.91c.298.69.539 1.4.72 2.13Zm-5.821 0h4.28a12.856 12.856 0 0 0-.876-2.31A11.676 11.676 0 0 0 12 4.02a11.67 11.67 0 0 0-1.264 1.995 12.842 12.842 0 0 0-.876 2.31Zm-4.933 0h3.392c.182-.73.423-1.44.721-2.13.3-.692.64-1.328 1.024-1.91-1.152.255-2.162.73-3.031 1.427a7.925 7.925 0 0 0-2.106 2.613Z"/></svg>