<svg xmlns="http://www.w3.org/2000/svg" width="28" height="28" viewBox="0 0 28 28" fill="none" aria-hidden="true" focusable="false"><circle cx="14" cy="14" r="14" fill="#000"/><path fill="#fff" d="m14.867 15.8 4.2 4.2.933-.933-4.2-4.2a4.063 4.063 0 0 0 .867-2.533c0-1.212-.42-2.237-1.258-3.076C14.569 8.419 13.544 8 12.333 8c-1.21 0-2.236.42-3.074 1.258-.84.84-1.259 1.864-1.259 3.075s.42 2.237 1.259 3.076c.838.838 1.863 1.258 3.074 1.258a4.063 4.063 0 0 0 2.534-.867Zm-.406-1.341a2.895 2.895 0 0 1-2.125.874 2.895 2.895 0 0 1-2.125-.874 2.895 2.895 0 0 1-.875-2.126c0-.833.291-1.541.875-2.125a2.895 2.895 0 0 1 2.125-.875c.833 0 1.542.292 2.125.875.583.584.875 1.292.875 2.125 0 .834-.292 1.542-.875 2.126Z" clip-rule="evenodd"/></svg>
