<svg xmlns="http://www.w3.org/2000/svg" width="28" height="28" viewBox="0 0 28 28" fill="#000" aria-hidden="true" focusable="false"><circle cx="14" cy="14" r="14" /><path fill="#fff" d="M14 14a2.889 2.889 0 0 1-2.119-.881A2.889 2.889 0 0 1 11 11c0-.825.294-1.531.881-2.119A2.889 2.889 0 0 1 14 8c.825 0 1.531.294 2.119.881.587.588.881 1.294.881 2.119 0 .825-.294 1.531-.881 2.119A2.889 2.889 0 0 1 14 14Zm-6 6v-2.1c0-.425.11-.816.328-1.172.219-.356.51-.628.872-.816a11.138 11.138 0 0 1 2.363-.871 10.322 10.322 0 0 1 4.875 0c.8.193 1.587.484 2.362.871.363.188.653.46.872.816.219.356.328.747.328 1.172V20H8Z"/></svg>
