<svg fill="#000" viewBox="0 0 55 48" width="55" height="48" xmlns="http://www.w3.org/2000/svg" aria-hidden="true" focusable="false"><path d="M0 39.84h55V48H0zm31.565-24c0 8.748-7.066 15.84-15.782 15.84C7.066 31.68 0 24.588 0 15.84 0 7.092 7.066 0 15.783 0v8.16c-4.227 0-7.653 3.438-7.653 7.68 0 4.242 3.426 7.68 7.653 7.68 4.225 0 7.651-3.438 7.652-7.679l8.13-.001Z"/><path d="M39.217 0C47.934 0 55 7.092 55 15.84c0 8.748-7.066 15.84-15.783 15.84-8.716 0-15.782-7.092-15.782-15.84C23.435 7.092 30.5 0 39.217 0Zm0 8.16c-4.226 0-7.652 3.438-7.652 7.68 0 4.242 3.426 7.68 7.652 7.68 4.227 0 7.653-3.438 7.653-7.68 0-4.242-3.426-7.68-7.653-7.68Z"/></svg>
