<svg xmlns="http://www.w3.org/2000/svg" viewBox="0 0 32 32" width="32" height="32" fill="none" aria-hidden="true" focusable="false"><path fill="#333" d="M8.711 7.763a.75.75 0 0 0-1.422 0l-5 15A.75.75 0 0 0 3 23.75h10a.75.75 0 0 0 .711-.988l-5-15ZM4.04 22.25 8 10.375l3.96 11.875H4.04ZM25.75 9.5a6.25 6.25 0 1 0-6.25 6.25 6.257 6.257 0 0 0 6.25-6.25Zm-11 0a4.75 4.75 0 1 1 9.5 0 4.75 4.75 0 0 1-9.5 0ZM28 18.25H17a.75.75 0 0 0-.75.75v7a.75.75 0 0 0 .75.75h11a.75.75 0 0 0 .75-.75v-7a.75.75 0 0 0-.75-.75Zm-.75 7h-9.5v-5.5h9.5v5.5Z"/></svg>
