<svg xmlns="http://www.w3.org/2000/svg" viewBox="0 0 32 32" width="32" height="32" fill="none" aria-hidden="true" focusable="false"><path fill="#333" d="m28.601 14.361-7.931-2.885a.243.243 0 0 1-.146-.146l-2.885-7.931a1.744 1.744 0 0 0-3.278 0l-2.885 7.931a.242.242 0 0 1-.146.146l-7.931 2.885a1.743 1.743 0 0 0 0 3.278l7.931 2.885a.242.242 0 0 1 .146.146l2.885 7.931a1.744 1.744 0 0 0 3.278 0l2.885-7.931a.243.243 0 0 1 .146-.146l7.931-2.885a1.744 1.744 0 0 0 0-3.278Zm-.512 1.875-7.931 2.884a1.751 1.751 0 0 0-1.044 1.044l-2.884 7.931a.25.25 0 0 1-.46 0l-2.884-7.931a1.751 1.751 0 0 0-1.043-1.044L3.91 16.23a.25.25 0 0 1 0-.46l7.931-2.884a1.751 1.751 0 0 0 1.044-1.043L15.77 3.91a.25.25 0 0 1 .46 0l2.884 7.931a1.75 1.75 0 0 0 1.043 1.044l7.932 2.884a.25.25 0 0 1 0 .46v.006Z"/></svg>
