<svg xmlns="http://www.w3.org/2000/svg" viewBox="0 0 32 32" width="32" height="32" fill="none" aria-hidden="true" focusable="false"><path fill="#333" d="M15.75 16a.75.75 0 0 1-.281.586l-5 4a.75.75 0 0 1-.938-1.172L13.8 16l-4.269-3.414a.75.75 0 0 1 .938-1.172l5 4a.751.751 0 0 1 .281.586ZM22 19.25h-5a.75.75 0 1 0 0 1.5h5a.75.75 0 1 0 0-1.5ZM28.75 7v18A1.75 1.75 0 0 1 27 26.75H5A1.75 1.75 0 0 1 3.25 25V7A1.75 1.75 0 0 1 5 5.25h22A1.75 1.75 0 0 1 28.75 7Zm-1.5 0a.25.25 0 0 0-.25-.25H5a.25.25 0 0 0-.25.25v18a.25.25 0 0 0 .25.25h22a.25.25 0 0 0 .25-.25V7Z"/></svg>
