<svg xmlns="http://www.w3.org/2000/svg" viewBox="0 0 32 32" width="32" height="32" fill="none" aria-hidden="true" focusable="false"><path fill="#333" d="m20.416 14.375-6-4A.75.75 0 0 0 13.25 11v8a.75.75 0 0 0 1.166.625l6-4a.75.75 0 0 0 0-1.25Zm-5.666 3.224V12.4l3.898 2.6-3.898 2.599ZM26 5.25H6A2.75 2.75 0 0 0 3.25 8v14A2.75 2.75 0 0 0 6 24.75h20A2.75 2.75 0 0 0 28.75 22V8A2.75 2.75 0 0 0 26 5.25ZM27.25 22A1.25 1.25 0 0 1 26 23.25H6A1.25 1.25 0 0 1 4.75 22V8A1.25 1.25 0 0 1 6 6.75h20A1.25 1.25 0 0 1 27.25 8v14Zm-6.5 6a.75.75 0 0 1-.75.75h-8a.75.75 0 1 1 0-1.5h8a.75.75 0 0 1 .75.75Z"/></svg>
