<svg xmlns="http://www.w3.org/2000/svg" viewBox="0 0 19 14" width="19" height="14" fill="none" aria-hidden="true" focusable="false"><path fill="#000" d="M18.038 2.59A2.276 2.276 0 0 0 16.452.974C15.043.58 9.409.58 9.409.58s-5.634 0-7.043.378A2.324 2.324 0 0 0 .78 2.589C.41 4.025.41 7 .41 7s0 2.991.37 4.41a2.277 2.277 0 0 0 1.586 1.617c1.424.392 7.043.392 7.043.392s5.634 0 7.043-.377a2.277 2.277 0 0 0 1.586-1.616c.371-1.435.371-4.41.371-4.41s.015-2.99-.37-4.425"/><path fill="#fff" d="M12.3 6.999 7.616 4.25v5.497z"/></svg>