<svg xmlns="http://www.w3.org/2000/svg" width="12" height="12" fill="none" aria-hidden="true" focusable="false"><path fill="#DA291C" d="M3.888 4.056c0-1.294.465-2.395 1.95-4.056 1.475 1.67 1.95 2.77 1.95 4.056 0 1.774-1.64 3.592-1.95 6.66-.311-3.077-1.968-4.895-1.95-6.66Zm-1.25 6.266c-.786.699-2.305.254-2.305-1.442 0-.953.984-1.774 1.933-1.774 1.881 0 2.735 2.028 2.786 2.963.035.743-.293 1.914-1.51 1.931.57-.288.769-.98.709-1.477-.061-.586-.44-1.355-1.252-1.355-.448 0-.794.297-.794.612-.008.289.164.533.432.542ZM9.46 9.78c0-.315-.345-.612-.794-.612-.81 0-1.19.77-1.25 1.355-.06.498.138 1.189.707 1.477-1.217-.017-1.545-1.188-1.51-1.931.052-.935.906-2.963 2.787-2.963.95 0 1.932.821 1.932 1.774 0 1.695-1.518 2.14-2.303 1.442.259-.009.431-.253.431-.542Z" clip-rule="evenodd"/></svg>