<svg width="32" height="32" viewBox="0 0 32 32" fill="none" xmlns="http://www.w3.org/2000/svg">
<path d="M28.75 26C28.75 26.1989 28.671 26.3897 28.5303 26.5303C28.3897 26.671 28.1989 26.75 28 26.75H4C3.80109 26.75 3.61032 26.671 3.46967 26.5303C3.32902 26.3897 3.25 26.1989 3.25 26V6C3.25 5.80109 3.32902 5.61032 3.46967 5.46967C3.61032 5.32902 3.80109 5.25 4 5.25C4.19891 5.25 4.38968 5.32902 4.53033 5.46967C4.67098 5.61032 4.75 5.80109 4.75 6V20.19L11.47 13.47C11.6106 13.3295 11.8012 13.2507 12 13.2507C12.1988 13.2507 12.3894 13.3295 12.53 13.47L16 16.9387L23.19 9.75H20C19.8011 9.75 19.6103 9.67098 19.4697 9.53033C19.329 9.38968 19.25 9.19891 19.25 9C19.25 8.80109 19.329 8.61032 19.4697 8.46967C19.6103 8.32902 19.8011 8.25 20 8.25H25C25.1989 8.25 25.3897 8.32902 25.5303 8.46967C25.671 8.61032 25.75 8.80109 25.75 9V14C25.75 14.1989 25.671 14.3897 25.5303 14.5303C25.3897 14.671 25.1989 14.75 25 14.75C24.8011 14.75 24.6103 14.671 24.4697 14.5303C24.329 14.3897 24.25 14.1989 24.25 14V10.81L16.53 18.53C16.3894 18.6705 16.1988 18.7493 16 18.7493C15.8012 18.7493 15.6106 18.6705 15.47 18.53L12 15.0612L4.75 22.3113V25.25H28C28.1989 25.25 28.3897 25.329 28.5303 25.4697C28.671 25.6103 28.75 25.8011 28.75 26Z" fill="#333333"/>
</svg>
