<svg xmlns="http://www.w3.org/2000/svg" viewBox="0 0 32 32" width="32" height="32" fill="none" aria-hidden="true" focusable="false"><path fill="#333" d="M13.25 14a.75.75 0 0 1 .75-.75h4a.75.75 0 1 1 0 1.5h-4a.75.75 0 0 1-.75-.75Zm15.5-5v16A1.75 1.75 0 0 1 27 26.75H5A1.75 1.75 0 0 1 3.25 25V9A1.75 1.75 0 0 1 5 7.25h5.25V6A2.75 2.75 0 0 1 13 3.25h6A2.75 2.75 0 0 1 21.75 6v1.25H27A1.75 1.75 0 0 1 28.75 9Zm-17-1.75h8.5V6A1.25 1.25 0 0 0 19 4.75h-6A1.25 1.25 0 0 0 11.75 6v1.25ZM4.75 9v5.349a23.25 23.25 0 0 0 22.5-.002V9a.25.25 0 0 0-.25-.25H5a.25.25 0 0 0-.25.25Zm22.5 16v-8.954a24.764 24.764 0 0 1-22.5.002V25a.25.25 0 0 0 .25.25h22a.25.25 0 0 0 .25-.25Z"/></svg>
