<svg xmlns="http://www.w3.org/2000/svg" viewBox="0 0 32 32" width="32" height="32" fill="none" aria-hidden="true" focusable="false"><path fill="#333" d="m28.238 7.289-12-4a.75.75 0 0 0-.476 0l-12 4a.75.75 0 0 0-.512.71v10a.75.75 0 1 0 1.5 0V9.04l4.835 1.613a7.75 7.75 0 0 0 2.79 11.192c-2.406.816-4.5 2.448-6 4.75a.75.75 0 0 0 1.25.816c1.934-2.961 4.985-4.66 8.375-4.66 3.39 0 6.441 1.699 8.375 4.66a.75.75 0 0 0 1.25-.82c-1.5-2.298-3.591-3.93-6-4.75a7.75 7.75 0 0 0 2.784-11.191l5.829-1.938a.75.75 0 0 0 0-1.422Zm-5.988 7.71a6.25 6.25 0 1 1-11.171-3.85l4.683 1.562a.75.75 0 0 0 .476 0l4.683-1.561A6.223 6.223 0 0 1 22.25 15ZM16 11.21 6.375 8 16 4.79 25.625 8 16 11.21Z"/></svg>
